<svg width="32" height="28" viewBox="0 0 32 28" fill="none" xmlns="http://www.w3.org/2000/svg">
<g filter="url(#filter0_d_2_5)">
<path d="M13.7 4.7H7.7C6.6 4.7 5.71 5.6 5.71 6.7L5.7 18.7C5.7 19.8 6.6 20.7 7.7 20.7H23.7C24.8 20.7 25.7 19.8 25.7 18.7V8.7C25.7 7.6 24.8 6.7 23.7 6.7H15.7L13.7 4.7Z" fill="#935B00"/>
<path d="M7.7 5.2H13.493L15.493 7.2H23.7C24.5239 7.2 25.2 7.87614 25.2 8.7V18.7C25.2 19.5239 24.5239 20.2 23.7 20.2H7.7C6.87614 20.2 6.2 19.5239 6.2 18.7L6.20977 6.7C6.20977 5.87287 6.8794 5.2 7.7 5.2Z" stroke="#D78C14" stroke-opacity="0.39"/>
</g>
<defs>
<filter id="filter0_d_2_5" x="9.53674e-07" y="-2.86102e-06" width="31.4" height="27.4" filterUnits="userSpaceOnUse" color-interpolation-filters="sRGB">
<feFlood flood-opacity="0" result="BackgroundImageFix"/>
<feColorMatrix in="SourceAlpha" type="matrix" values="0 0 0 0 0 0 0 0 0 0 0 0 0 0 0 0 0 0 127 0" result="hardAlpha"/>
<feOffset dy="1"/>
<feGaussianBlur stdDeviation="2.85"/>
<feComposite in2="hardAlpha" operator="out"/>
<feColorMatrix type="matrix" values="0 0 0 0 0.985459 0 0 0 0 1 0 0 0 0 0.127535 0 0 0 0.69 0"/>
<feBlend mode="normal" in2="BackgroundImageFix" result="effect1_dropShadow_2_5"/>
<feBlend mode="normal" in="SourceGraphic" in2="effect1_dropShadow_2_5" result="shape"/>
</filter>
</defs>
</svg>
